# File created by Blade
# Date/Time:  Thu Sep 25 18:58:07 2014
# Frame Rate: 120.000 fps
#------------------------------------------------------
:FULLY-SPECIFIED
:DEGREES
879
root 2.105631 32.906125 0.790434 8.523399 -7.098589 -0.974826
Spine -5.309342 10.988970 -2.223250
Head -13.163927 -3.720192 12.223435
LeftShoulder -13.526520 14.850107 28.425165
LeftArm 17.387904 -25.089805 -33.035313
LeftForeArm 14.085981 -0.000000 14.203947
LeftHand -28.235964 0.000000 -6.374867
LeftHandThumb1 -26.253704 0.000000 33.147579
RightShoulder -16.797768 20.003623 -36.147950
RightArm -12.298054 10.165231 35.200463
RightForeArm -31.557361 0.000000 14.988059
RightHand -13.788473 0.000000 12.654855
RightHandThumb1 -24.326973 -0.000000 -32.862282
LeftUpLeg -2.898163 12.408114 2.500993
LeftLeg -1.921995 -0.000000 0.000000
LeftFoot -8.807997 2.869837 -16.327856
LeftToeBase 7.687080 -0.000000 -0.000000
RightUpLeg -6.643453 -16.871586 -6.597709
RightLeg 1.991527 -0.000000 -0.000000
RightFoot -3.243036 15.229595 12.440210
RightToeBase -18.772388 -0.000000 0.000000
880
root 2.099090 32.905259 0.802364 8.514415 -7.069894 -0.968348
Spine -5.344609 11.018285 -2.258904
Head -13.133079 -3.756937 12.236121
LeftShoulder -13.540165 14.838030 28.413785
LeftArm 17.392693 -25.069432 -33.022494
LeftForeArm 14.126239 -0.000000 14.177442
LeftHand -28.254590 -0.000000 -6.297821
LeftHandThumb1 -26.253704 0.000000 33.147579
RightShoulder -16.802828 19.974189 -36.114772
RightArm -12.262648 10.149668 35.187149
RightForeArm -31.462686 -0.000000 14.972600
RightHand -13.761901 -0.000000 12.684214
RightHandThumb1 -24.326973 -0.000000 -32.862282
LeftUpLeg -2.861461 12.356388 2.513267
LeftLeg -1.939833 -0.000000 0.000000
LeftFoot -8.806726 2.904895 -16.307073
LeftToeBase 7.608727 -0.000000 -0.000000
RightUpLeg -6.611594 -16.854815 -6.610169
RightLeg 2.001120 -0.000000 -0.000000
RightFoot -3.340971 15.139431 12.311837
RightToeBase -18.707419 -0.000000 0.000000
881
root 2.091448 32.904009 0.815825 8.501780 -7.028995 -0.966364
Spine -5.378638 11.041108 -2.287480
Head -13.100842 -3.767394 12.245711
LeftShoulder -13.536504 14.831550 28.433746
LeftArm 17.366160 -25.081173 -33.050580
LeftForeArm 14.069222 -0.000000 14.228432
LeftHand -28.224887 -0.000000 -6.363042
LeftHandThumb1 -26.253704 0.000000 33.147579
RightShoulder -16.810866 19.960438 -36.140613
RightArm -12.266022 10.268430 35.221729
RightForeArm -31.577142 -0.000000 14.998814
RightHand -13.757435 -0.000000 12.614820
RightHandThumb1 -24.326973 -0.000000 -32.862282
LeftUpLeg -2.823075 12.362536 2.529065
LeftLeg -1.954456 -0.000000 0.000000
LeftFoot -8.798627 2.876740 -16.309459
LeftToeBase 7.593739 -0.000000 -0.000000
RightUpLeg -6.575989 -16.830305 -6.619403
RightLeg 2.030194 -0.000000 -0.000000
RightFoot -3.374465 15.089884 12.283080
RightToeBase -18.697879 -0.000000 0.000000
882
root 2.083295 32.902880 0.827988 8.491893 -6.993250 -0.971325
Spine -5.407831 11.073446 -2.306948
Head -13.088481 -3.792076 12.256215
LeftShoulder -13.537268 14.803400 28.442729
LeftArm 17.346680 -25.001890 -33.035017
LeftForeArm 13.986095 -0.000000 14.204456
LeftHand -28.225468 -0.000000 -6.296003
LeftHandThumb1 -26.253704 0.000000 33.147579
RightShoulder -16.811467 20.017341 -36.156663
RightArm -12.355328 10.297133 35.206508
RightForeArm -31.645696 -0.000000 15.093739
RightHand -13.812910 -0.000000 12.604618
RightHandThumb1 -24.326973 -0.000000 -32.862282
LeftUpLeg -2.788929 12.334633 2.553824
LeftLeg -1.966504 -0.000000 0.000000
LeftFoot -8.804415 2.876558 -16.289349
LeftToeBase 7.628828 -0.000000 -0.000000
RightUpLeg -6.548763 -16.769684 -6.617763
RightLeg 2.063667 -0.000000 -0.000000
RightFoot -3.413087 15.020034 12.265778
RightToeBase -18.635956 -0.000000 0.000000
883
root 2.075357 32.901884 0.838901 8.485499 -6.942433 -0.982029
Spine -5.434040 11.098179 -2.313186
Head -13.078741 -3.825697 12.255529
LeftShoulder -13.526605 14.807189 28.429508
LeftArm 17.353226 -25.035283 -33.042247
LeftForeArm 14.007183 -0.000000 14.181068
LeftHand -28.199301 -0.000000 -6.357873
LeftHandThumb1 -26.253704 0.000000 33.147579
RightShoulder -16.817241 20.010405 -36.166005
RightArm -12.369196 10.288912 35.213199
RightForeArm -31.655322 0.000000 15.098298
RightHand -13.806819 -0.000000 12.675433
RightHandThumb1 -24.326973 -0.000000 -32.862282
LeftUpLeg -2.766576 12.324583 2.584402
LeftLeg -1.967966 -0.000000 0.000000
LeftFoot -8.819299 2.846739 -16.296805
LeftToeBase 7.631936 -0.000000 -0.000000
RightUpLeg -6.517149 -16.703237 -6.605468
RightLeg 2.092334 -0.000000 -0.000000
RightFoot -3.343604 15.010118 12.353250
RightToeBase -18.840308 -0.000000 0.000000
884
root 2.069018 32.901393 0.849732 8.474594 -6.885422 -0.983802
Spine -5.452855 11.109677 -2.322348
Head -13.080141 -3.833249 12.261661
LeftShoulder -13.531312 14.810143 28.414471
LeftArm 17.385036 -25.051034 -33.066573
LeftForeArm 14.100774 -0.000000 14.094178
LeftHand -28.101056 -0.000000 -6.326807
LeftHandThumb1 -26.253704 0.000000 33.147579
RightShoulder -16.817469 19.986968 -36.143303
RightArm -12.337193 10.266973 35.207850
RightForeArm -31.588999 -0.000000 15.085878
RightHand -13.871829 0.000000 12.536489
RightHandThumb1 -24.326973 -0.000000 -32.862282
LeftUpLeg -2.744756 12.294796 2.596341
LeftLeg -1.957794 -0.000000 0.000000
LeftFoot -8.852092 2.870996 -16.352261
LeftToeBase 7.676119 -0.000000 -0.000000
RightUpLeg -6.478738 -16.646106 -6.607830
RightLeg 2.110801 -0.000000 -0.000000
RightFoot -3.359571 14.903037 12.298980
RightToeBase -18.622968 -0.000000 0.000000
885
root 2.061372 32.900894 0.860251 8.464045 -6.817031 -0.986662
Spine -5.468164 11.099865 -2.327111
Head -13.081108 -3.829309 12.246895
LeftShoulder -13.547205 14.841162 28.408411
LeftArm 17.399153 -25.059410 -33.109842
LeftForeArm 14.082438 -0.000000 14.094043
LeftHand -28.176044 -0.000000 -6.328945
LeftHandThumb1 -26.253704 0.000000 33.147579
RightShoulder -16.820108 19.990662 -36.142948
RightArm -12.334643 10.284889 35.215806
RightForeArm -31.633792 -0.000000 15.119957
RightHand -13.834070 -0.000000 12.505105
RightHandThumb1 -24.326973 -0.000000 -32.862282
LeftUpLeg -2.724981 12.299659 2.616218
LeftLeg -1.958872 -0.000000 0.000000
LeftFoot -8.844104 2.832854 -16.306666
LeftToeBase 7.665693 -0.000000 -0.000000
RightUpLeg -6.426773 -16.589462 -6.607694
RightLeg 2.100245 -0.000000 -0.000000
RightFoot -3.469979 14.725759 12.088758
RightToeBase -18.120438 -0.000000 0.000000
886
root 2.054953 32.900130 0.870977 8.454585 -6.732692 -0.979711
Spine -5.483762 11.079130 -2.334733
Head -13.089784 -3.841060 12.232415
LeftShoulder -13.563181 14.872754 28.406430
LeftArm 17.393127 -25.040041 -33.154050
LeftForeArm 13.920641 -0.000000 14.161006
LeftHand -28.270799 -0.000000 -6.435659
LeftHandThumb1 -26.253704 0.000000 33.147579
RightShoulder -16.795097 19.991841 -36.125858
RightArm -12.356062 10.283739 35.187154
RightForeArm -31.605828 -0.000000 15.128592
RightHand -13.829051 0.000000 12.545426
RightHandThumb1 -24.326973 -0.000000 -32.862282
LeftUpLeg -2.709253 12.276372 2.628482
LeftLeg -1.956573 -0.000000 0.000000
LeftFoot -8.823118 2.789710 -16.310648
LeftToeBase 7.634175 -0.000000 -0.000000
RightUpLeg -6.382744 -16.578824 -6.616218
RightLeg 2.123079 -0.000000 -0.000000
RightFoot -3.414907 14.713635 12.286462
RightToeBase -18.218888 -0.000000 0.000000
887
root 2.048369 32.900155 0.881359 8.442068 -6.643718 -0.984579
Spine -5.492166 11.064356 -2.319250
Head -13.089281 -3.841936 12.190891
LeftShoulder -13.567360 14.901263 28.373454
LeftArm 17.403187 -25.023230 -33.159415
LeftForeArm 13.830187 -0.000000 14.129337
LeftHand -28.161099 0.000000 -6.397900
LeftHandThumb1 -26.253704 0.000000 33.147579
RightShoulder -16.800077 19.976868 -36.121271
RightArm -12.327672 10.229098 35.185059
RightForeArm -31.502601 -0.000000 15.096879
RightHand -13.860208 0.000000 12.566672
RightHandThumb1 -24.326973 -0.000000 -32.862282
LeftUpLeg -2.692693 12.279384 2.659716
LeftLeg -1.959222 -0.000000 0.000000
LeftFoot -8.780605 2.680744 -16.251092
LeftToeBase 7.625404 -0.000000 -0.000000
RightUpLeg -6.294146 -16.495028 -6.619604
RightLeg 2.064793 -0.000000 -0.000000
RightFoot -3.448810 14.541865 12.321103
RightToeBase -18.224016 -0.000000 0.000000
